<?xml version="1.0" encoding="UTF-8" standalone="no"?>
<!DOCTYPE svg PUBLIC "-//W3C//DTD SVG 1.1//EN"
 "http://www.w3.org/Graphics/SVG/1.1/DTD/svg11.dtd">
<!-- Generated by graphviz version 2.36.0 (20140111.2315)
 -->
<!-- Title: G Pages: 1 -->
<svg width="952pt" height="860pt"
 viewBox="0.00 0.00 952.35 860.00" xmlns="http://www.w3.org/2000/svg" xmlns:xlink="http://www.w3.org/1999/xlink">
<g id="graph0" class="graph" transform="scale(1 1) rotate(0) translate(4 856)">
<title>G</title>
<polygon fill="white" stroke="#000000" points="-4,4 -4,-856 948.351,-856 948.351,4 -4,4"/>
<!-- :build -->
<g id="node1" class="node"><title>:build</title>
<polygon fill="#abdda4" stroke="#abdda4" points="208.521,-834 187.436,-852 145.266,-852 124.181,-834 145.266,-816 187.436,-816 208.521,-834"/>
<text text-anchor="middle" x="166.351" y="-830.3" font-family="Times,serif" font-size="14.00">:build</text>
</g>
<!-- :assemble -->
<g id="node2" class="node"><title>:assemble</title>
<polygon fill="#abdda4" stroke="#abdda4" points="209.851,-708 122.851,-708 122.851,-672 209.851,-672 209.851,-708"/>
<text text-anchor="middle" x="166.351" y="-686.3" font-family="Times,serif" font-size="14.00">:assemble</text>
</g>
<!-- :build&#45;&gt;:assemble -->
<g id="edge1" class="edge"><title>:build&#45;&gt;:assemble</title>
<path fill="none" stroke="#abdda4" d="M166.351,-815.871C166.351,-791.67 166.351,-747.211 166.351,-718.393"/>
<polygon fill="#abdda4" stroke="#abdda4" points="169.851,-718.189 166.351,-708.189 162.851,-718.189 169.851,-718.189"/>
</g>
<!-- :check -->
<g id="node3" class="node"><title>:check</title>
<polygon fill="#abdda4" stroke="#abdda4" points="378.351,-780 314.351,-780 314.351,-744 378.351,-744 378.351,-780"/>
<text text-anchor="middle" x="346.351" y="-758.3" font-family="Times,serif" font-size="14.00">:check</text>
</g>
<!-- :build&#45;&gt;:check -->
<g id="edge2" class="edge"><title>:build&#45;&gt;:check</title>
<path fill="none" stroke="#abdda4" d="M194.872,-821.908C224.466,-810.4 271.047,-792.285 304.746,-779.18"/>
<polygon fill="#abdda4" stroke="#abdda4" points="306.268,-782.343 314.32,-775.457 303.731,-775.819 306.268,-782.343"/>
</g>
<!-- :installDist -->
<g id="node4" class="node"><title>:installDist</title>
<polygon fill="#abdda4" stroke="#abdda4" points="99.6008,-780 5.10078,-780 5.10078,-744 99.6008,-744 99.6008,-780"/>
<text text-anchor="middle" x="52.3508" y="-758.3" font-family="Times,serif" font-size="14.00">:installDist</text>
</g>
<!-- :build&#45;&gt;:installDist -->
<g id="edge3" class="edge"><title>:build&#45;&gt;:installDist</title>
<path fill="none" stroke="#abdda4" d="M142.453,-818.326C126.996,-808.835 106.57,-796.293 89.0749,-785.55"/>
<polygon fill="#abdda4" stroke="#abdda4" points="90.5881,-782.372 80.2349,-780.122 86.9252,-788.337 90.5881,-782.372"/>
</g>
<!-- :distTar -->
<g id="node5" class="node"><title>:distTar</title>
<polygon fill="#abdda4" stroke="#abdda4" points="221.601,-636 151.101,-636 151.101,-600 221.601,-600 221.601,-636"/>
<text text-anchor="middle" x="186.351" y="-614.3" font-family="Times,serif" font-size="14.00">:distTar</text>
</g>
<!-- :assemble&#45;&gt;:distTar -->
<g id="edge4" class="edge"><title>:assemble&#45;&gt;:distTar</title>
<path fill="none" stroke="#abdda4" d="M171.295,-671.697C173.523,-663.898 176.205,-654.509 178.685,-645.829"/>
<polygon fill="#abdda4" stroke="#abdda4" points="182.082,-646.681 181.464,-636.104 175.351,-644.758 182.082,-646.681"/>
</g>
<!-- :distZip -->
<g id="node6" class="node"><title>:distZip</title>
<polygon fill="#abdda4" stroke="#abdda4" points="132.601,-636 62.1008,-636 62.1008,-600 132.601,-600 132.601,-636"/>
<text text-anchor="middle" x="97.3508" y="-614.3" font-family="Times,serif" font-size="14.00">:distZip</text>
</g>
<!-- :assemble&#45;&gt;:distZip -->
<g id="edge5" class="edge"><title>:assemble&#45;&gt;:distZip</title>
<path fill="none" stroke="#abdda4" d="M149.295,-671.697C140.855,-663.135 130.526,-652.656 121.308,-643.304"/>
<polygon fill="#abdda4" stroke="#abdda4" points="123.723,-640.769 114.211,-636.104 118.738,-645.683 123.723,-640.769"/>
</g>
<!-- :jar -->
<g id="node7" class="node"><title>:jar</title>
<polygon fill="#abdda4" stroke="#abdda4" points="213.351,-484 159.351,-484 159.351,-448 213.351,-448 213.351,-484"/>
<text text-anchor="middle" x="186.351" y="-462.3" font-family="Times,serif" font-size="14.00">:jar</text>
</g>
<!-- :assemble&#45;&gt;:jar -->
<g id="edge6" class="edge"><title>:assemble&#45;&gt;:jar</title>
<path fill="none" stroke="#abdda4" d="M197.12,-671.907C209.895,-663.021 223.352,-650.883 230.351,-636 252.876,-588.1 224.214,-526.933 203.705,-492.872"/>
<polygon fill="#abdda4" stroke="#abdda4" points="206.446,-490.653 198.186,-484.018 200.506,-494.356 206.446,-490.653"/>
</g>
<!-- :test -->
<g id="node8" class="node"><title>:test</title>
<polygon fill="#abdda4" stroke="#abdda4" points="474.351,-708 420.351,-708 420.351,-672 474.351,-672 474.351,-708"/>
<text text-anchor="middle" x="447.351" y="-686.3" font-family="Times,serif" font-size="14.00">:test</text>
</g>
<!-- :check&#45;&gt;:test -->
<g id="edge7" class="edge"><title>:check&#45;&gt;:test</title>
<path fill="none" stroke="#abdda4" d="M371.058,-743.876C384.019,-734.893 400.079,-723.763 414.116,-714.034"/>
<polygon fill="#abdda4" stroke="#abdda4" points="416.323,-716.763 422.548,-708.19 412.336,-711.009 416.323,-716.763"/>
</g>
<!-- :installDist&#45;&gt;:assemble -->
<g id="edge8" class="edge"><title>:installDist&#45;&gt;:assemble</title>
<path fill="none" stroke="#abdda4" d="M80.2383,-743.876C95.1438,-734.724 113.68,-723.342 129.732,-713.485"/>
<polygon fill="#abdda4" stroke="#abdda4" points="131.666,-716.405 138.356,-708.19 128.003,-710.44 131.666,-716.405"/>
</g>
<!-- :installDist&#45;&gt;:jar -->
<g id="edge9" class="edge"><title>:installDist&#45;&gt;:jar</title>
<path fill="none" stroke="#abdda4" d="M42.8755,-743.817C20.8399,-701.29 -28.2614,-589.546 22.3508,-520 51.1587,-480.415 110.134,-469.78 148.948,-467.26"/>
<polygon fill="#abdda4" stroke="#abdda4" points="149.504,-470.736 159.319,-466.746 149.158,-463.745 149.504,-470.736"/>
</g>
<!-- :startScripts -->
<g id="node9" class="node"><title>:startScripts</title>
<polygon fill="#abdda4" stroke="#abdda4" points="138.601,-560 32.1008,-560 32.1008,-524 138.601,-524 138.601,-560"/>
<text text-anchor="middle" x="85.3508" y="-538.3" font-family="Times,serif" font-size="14.00">:startScripts</text>
</g>
<!-- :installDist&#45;&gt;:startScripts -->
<g id="edge10" class="edge"><title>:installDist&#45;&gt;:startScripts</title>
<path fill="none" stroke="#abdda4" d="M49.4655,-743.698C45.1093,-713.789 38.7198,-650.75 52.3508,-600 55.2729,-589.121 60.833,-578.173 66.568,-568.822"/>
<polygon fill="#abdda4" stroke="#abdda4" points="69.5271,-570.691 72.0398,-560.399 63.657,-566.878 69.5271,-570.691"/>
</g>
<!-- :distTar&#45;&gt;:jar -->
<g id="edge11" class="edge"><title>:distTar&#45;&gt;:jar</title>
<path fill="none" stroke="#abdda4" d="M186.351,-599.793C186.351,-573.91 186.351,-524.727 186.351,-494.026"/>
<polygon fill="#abdda4" stroke="#abdda4" points="189.851,-494.006 186.351,-484.006 182.851,-494.006 189.851,-494.006"/>
</g>
<!-- :distTar&#45;&gt;:startScripts -->
<g id="edge12" class="edge"><title>:distTar&#45;&gt;:startScripts</title>
<path fill="none" stroke="#abdda4" d="M162.925,-599.837C149.286,-589.843 131.905,-577.109 117.053,-566.228"/>
<polygon fill="#abdda4" stroke="#abdda4" points="118.784,-563.157 108.649,-560.07 114.647,-568.804 118.784,-563.157"/>
</g>
<!-- :distZip&#45;&gt;:jar -->
<g id="edge13" class="edge"><title>:distZip&#45;&gt;:jar</title>
<path fill="none" stroke="#abdda4" d="M116.778,-599.796C126.901,-590.06 138.896,-577.212 147.351,-564 161.431,-541.999 172.005,-514.079 178.566,-493.849"/>
<polygon fill="#abdda4" stroke="#abdda4" points="181.988,-494.631 181.628,-484.042 175.307,-492.544 181.988,-494.631"/>
</g>
<!-- :distZip&#45;&gt;:startScripts -->
<g id="edge14" class="edge"><title>:distZip&#45;&gt;:startScripts</title>
<path fill="none" stroke="#abdda4" d="M94.5676,-599.837C93.1288,-590.964 91.3395,-579.931 89.7214,-569.952"/>
<polygon fill="#abdda4" stroke="#abdda4" points="93.1746,-569.381 88.1189,-560.07 86.2648,-570.501 93.1746,-569.381"/>
</g>
<!-- :classes -->
<g id="node10" class="node"><title>:classes</title>
<polygon fill="#abdda4" stroke="#abdda4" points="662.601,-412 590.101,-412 590.101,-376 662.601,-376 662.601,-412"/>
<text text-anchor="middle" x="626.351" y="-390.3" font-family="Times,serif" font-size="14.00">:classes</text>
</g>
<!-- :jar&#45;&gt;:classes -->
<g id="edge15" class="edge"><title>:jar&#45;&gt;:classes</title>
<path fill="none" stroke="#abdda4" d="M213.543,-460.674C286.699,-449.036 488.35,-416.955 579.971,-402.379"/>
<polygon fill="#abdda4" stroke="#abdda4" points="580.734,-405.801 590.06,-400.774 579.634,-398.888 580.734,-405.801"/>
</g>
<!-- :test&#45;&gt;:classes -->
<g id="edge16" class="edge"><title>:test&#45;&gt;:classes</title>
<path fill="none" stroke="#abdda4" d="M474.573,-687.785C538.059,-683.308 695.586,-662.323 762.351,-564 799.95,-508.629 719.802,-448.69 667.271,-417.21"/>
<polygon fill="#abdda4" stroke="#abdda4" points="668.855,-414.082 658.459,-412.039 665.312,-420.119 668.855,-414.082"/>
</g>
<!-- :testClasses -->
<g id="node11" class="node"><title>:testClasses</title>
<polygon fill="#abdda4" stroke="#abdda4" points="499.351,-636 395.351,-636 395.351,-600 499.351,-600 499.351,-636"/>
<text text-anchor="middle" x="447.351" y="-614.3" font-family="Times,serif" font-size="14.00">:testClasses</text>
</g>
<!-- :test&#45;&gt;:testClasses -->
<g id="edge17" class="edge"><title>:test&#45;&gt;:testClasses</title>
<path fill="none" stroke="#abdda4" d="M447.351,-671.697C447.351,-663.983 447.351,-654.712 447.351,-646.112"/>
<polygon fill="#abdda4" stroke="#abdda4" points="450.851,-646.104 447.351,-636.104 443.851,-646.104 450.851,-646.104"/>
</g>
<!-- :startScripts&#45;&gt;:jar -->
<g id="edge18" class="edge"><title>:startScripts&#45;&gt;:jar</title>
<path fill="none" stroke="#abdda4" d="M108.776,-523.837C122.416,-513.843 139.797,-501.109 154.648,-490.228"/>
<polygon fill="#abdda4" stroke="#abdda4" points="157.054,-492.804 163.053,-484.07 152.917,-487.157 157.054,-492.804"/>
</g>
<!-- :compileGroovy -->
<g id="node12" class="node"><title>:compileGroovy</title>
<polygon fill="#abdda4" stroke="#abdda4" points="690.351,-340 562.351,-340 562.351,-304 690.351,-304 690.351,-340"/>
<text text-anchor="middle" x="626.351" y="-318.3" font-family="Times,serif" font-size="14.00">:compileGroovy</text>
</g>
<!-- :classes&#45;&gt;:compileGroovy -->
<g id="edge19" class="edge"><title>:classes&#45;&gt;:compileGroovy</title>
<path fill="none" stroke="#abdda4" d="M626.351,-375.697C626.351,-367.983 626.351,-358.712 626.351,-350.112"/>
<polygon fill="#abdda4" stroke="#abdda4" points="629.851,-350.104 626.351,-340.104 622.851,-350.104 629.851,-350.104"/>
</g>
<!-- :compileJava -->
<g id="node13" class="node"><title>:compileJava</title>
<polygon fill="#abdda4" stroke="#abdda4" points="655.842,-238.544 655.842,-253.456 611.62,-264 549.081,-264 504.859,-253.456 504.859,-238.544 549.081,-228 611.62,-228 655.842,-238.544"/>
<polygon fill="none" stroke="#abdda4" points="659.817,-235.381 659.817,-256.619 612.085,-268 548.617,-268 500.885,-256.619 500.885,-235.381 548.617,-224 612.085,-224 659.817,-235.381"/>
<text text-anchor="middle" x="580.351" y="-242.3" font-family="Times,serif" font-size="14.00">:compileJava</text>
</g>
<!-- :classes&#45;&gt;:compileJava -->
<g id="edge20" class="edge"><title>:classes&#45;&gt;:compileJava</title>
<path fill="none" stroke="#abdda4" d="M589.837,-375.924C575.753,-367.293 561.175,-355.349 553.351,-340 543.18,-320.048 550.904,-295.68 560.653,-276.894"/>
<polygon fill="#abdda4" stroke="#abdda4" points="563.709,-278.6 565.533,-268.164 557.599,-275.185 563.709,-278.6"/>
</g>
<!-- :processResources -->
<g id="node14" class="node"><title>:processResources</title>
<polygon fill="#abdda4" stroke="#abdda4" points="859.601,-340 709.101,-340 709.101,-304 859.601,-304 859.601,-340"/>
<text text-anchor="middle" x="784.351" y="-318.3" font-family="Times,serif" font-size="14.00">:processResources</text>
</g>
<!-- :classes&#45;&gt;:processResources -->
<g id="edge21" class="edge"><title>:classes&#45;&gt;:processResources</title>
<path fill="none" stroke="#abdda4" d="M662.996,-376.765C684.967,-367.031 713.143,-354.548 736.814,-344.061"/>
<polygon fill="#abdda4" stroke="#abdda4" points="738.252,-347.252 745.977,-340.001 735.417,-340.852 738.252,-347.252"/>
</g>
<!-- :compileTestGroovy -->
<g id="node15" class="node"><title>:compileTestGroovy</title>
<polygon fill="#abdda4" stroke="#abdda4" points="753.851,-560 596.851,-560 596.851,-524 753.851,-524 753.851,-560"/>
<text text-anchor="middle" x="675.351" y="-538.3" font-family="Times,serif" font-size="14.00">:compileTestGroovy</text>
</g>
<!-- :testClasses&#45;&gt;:compileTestGroovy -->
<g id="edge22" class="edge"><title>:testClasses&#45;&gt;:compileTestGroovy</title>
<path fill="none" stroke="#abdda4" d="M499.373,-600.116C533.131,-589.159 577.306,-574.822 612.951,-563.253"/>
<polygon fill="#abdda4" stroke="#abdda4" points="614.332,-566.484 622.763,-560.068 612.171,-559.826 614.332,-566.484"/>
</g>
<!-- :compileTestJava -->
<g id="node16" class="node"><title>:compileTestJava</title>
<polygon fill="#abdda4" stroke="#abdda4" points="647.351,-484 509.351,-484 509.351,-448 647.351,-448 647.351,-484"/>
<text text-anchor="middle" x="578.351" y="-462.3" font-family="Times,serif" font-size="14.00">:compileTestJava</text>
</g>
<!-- :testClasses&#45;&gt;:compileTestJava -->
<g id="edge23" class="edge"><title>:testClasses&#45;&gt;:compileTestJava</title>
<path fill="none" stroke="#abdda4" d="M395.055,-611.749C364.015,-605.635 326.995,-592.441 307.351,-564 296.237,-547.909 294.921,-535.097 307.351,-520 331.276,-490.943 427.812,-477.591 498.881,-471.611"/>
<polygon fill="#abdda4" stroke="#abdda4" points="499.484,-475.074 509.17,-470.781 498.921,-468.096 499.484,-475.074"/>
</g>
<!-- :processTestResources -->
<g id="node17" class="node"><title>:processTestResources</title>
<polygon fill="#abdda4" stroke="#abdda4" points="574.36,-534.544 574.36,-549.456 499.96,-560 394.742,-560 320.342,-549.456 320.342,-534.544 394.742,-524 499.96,-524 574.36,-534.544"/>
<polygon fill="none" stroke="#abdda4" points="578.349,-531.07 578.349,-552.93 500.24,-564 394.461,-564 316.352,-552.93 316.352,-531.07 394.461,-520 500.24,-520 578.349,-531.07"/>
<text text-anchor="middle" x="447.351" y="-538.3" font-family="Times,serif" font-size="14.00">:processTestResources</text>
</g>
<!-- :testClasses&#45;&gt;:processTestResources -->
<g id="edge24" class="edge"><title>:testClasses&#45;&gt;:processTestResources</title>
<path fill="none" stroke="#abdda4" d="M447.351,-599.837C447.351,-592.165 447.351,-582.878 447.351,-574.053"/>
<polygon fill="#abdda4" stroke="#abdda4" points="450.851,-574.032 447.351,-564.032 443.851,-574.032 450.851,-574.032"/>
</g>
<!-- :compileGroovy&#45;&gt;:compileJava -->
<g id="edge25" class="edge"><title>:compileGroovy&#45;&gt;:compileJava</title>
<path fill="none" stroke="#abdda4" d="M615.682,-303.837C610.654,-295.748 604.509,-285.863 598.763,-276.619"/>
<polygon fill="#abdda4" stroke="#abdda4" points="601.677,-274.677 593.425,-268.032 595.732,-278.373 601.677,-274.677"/>
</g>
<!-- :grunt_build -->
<g id="node18" class="node"><title>:grunt_build</title>
<polygon fill="#abdda4" stroke="#abdda4" points="836.351,-264 732.351,-264 732.351,-228 836.351,-228 836.351,-264"/>
<text text-anchor="middle" x="784.351" y="-242.3" font-family="Times,serif" font-size="14.00">:grunt_build</text>
</g>
<!-- :processResources&#45;&gt;:grunt_build -->
<g id="edge26" class="edge"><title>:processResources&#45;&gt;:grunt_build</title>
<path fill="none" stroke="#abdda4" d="M784.351,-303.837C784.351,-295.058 784.351,-284.163 784.351,-274.267"/>
<polygon fill="#abdda4" stroke="#abdda4" points="787.851,-274.07 784.351,-264.07 780.851,-274.07 787.851,-274.07"/>
</g>
<!-- :compileTestGroovy&#45;&gt;:classes -->
<g id="edge27" class="edge"><title>:compileTestGroovy&#45;&gt;:classes</title>
<path fill="none" stroke="#abdda4" d="M673.47,-523.753C671.023,-504.738 665.886,-473.464 656.351,-448 652.956,-438.935 648.153,-429.576 643.383,-421.292"/>
<polygon fill="#abdda4" stroke="#abdda4" points="646.235,-419.243 638.088,-412.469 640.233,-422.845 646.235,-419.243"/>
</g>
<!-- :compileTestGroovy&#45;&gt;:compileTestJava -->
<g id="edge28" class="edge"><title>:compileTestGroovy&#45;&gt;:compileTestJava</title>
<path fill="none" stroke="#abdda4" d="M652.853,-523.837C639.754,-513.843 623.061,-501.109 608.798,-490.228"/>
<polygon fill="#abdda4" stroke="#abdda4" points="610.8,-487.353 600.726,-484.07 606.554,-492.918 610.8,-487.353"/>
</g>
<!-- :compileTestJava&#45;&gt;:classes -->
<g id="edge29" class="edge"><title>:compileTestJava&#45;&gt;:classes</title>
<path fill="none" stroke="#abdda4" d="M590.216,-447.697C595.854,-439.474 602.705,-429.483 608.919,-420.421"/>
<polygon fill="#abdda4" stroke="#abdda4" points="611.853,-422.331 614.622,-412.104 606.08,-418.372 611.853,-422.331"/>
</g>
<!-- :installGrunt -->
<g id="node19" class="node"><title>:installGrunt</title>
<polygon fill="#abdda4" stroke="#abdda4" points="755.601,-116 649.101,-116 649.101,-80 755.601,-80 755.601,-116"/>
<text text-anchor="middle" x="702.351" y="-94.3" font-family="Times,serif" font-size="14.00">:installGrunt</text>
</g>
<!-- :grunt_build&#45;&gt;:installGrunt -->
<g id="edge30" class="edge"><title>:grunt_build&#45;&gt;:installGrunt</title>
<path fill="none" stroke="#abdda4" d="M774.784,-227.966C760.603,-202.717 733.883,-155.142 717.16,-125.368"/>
<polygon fill="#abdda4" stroke="#abdda4" points="720.06,-123.383 712.111,-116.378 713.956,-126.811 720.06,-123.383"/>
</g>
<!-- :nodeSetup -->
<g id="node20" class="node"><title>:nodeSetup</title>
<polygon fill="#abdda4" stroke="#abdda4" points="871.703,-14.5442 871.703,-29.4558 831.663,-40 775.038,-40 734.999,-29.4558 734.999,-14.5442 775.038,-4 831.663,-4 871.703,-14.5442"/>
<polygon fill="none" stroke="#abdda4" points="875.709,-11.4625 875.709,-32.5375 832.183,-44 774.519,-44 730.992,-32.5375 730.992,-11.4625 774.519,-7.10543e-15 832.183,-3.55271e-15 875.709,-11.4625"/>
<text text-anchor="middle" x="803.351" y="-18.3" font-family="Times,serif" font-size="14.00">:nodeSetup</text>
</g>
<!-- :grunt_build&#45;&gt;:nodeSetup -->
<g id="edge31" class="edge"><title>:grunt_build&#45;&gt;:nodeSetup</title>
<path fill="none" stroke="#abdda4" d="M785.81,-227.949C788.993,-190.758 796.6,-101.882 800.671,-54.3105"/>
<polygon fill="#abdda4" stroke="#abdda4" points="804.165,-54.5279 801.531,-44.2659 797.191,-53.9309 804.165,-54.5279"/>
</g>
<!-- :npmInstall -->
<g id="node21" class="node"><title>:npmInstall</title>
<polygon fill="#abdda4" stroke="#abdda4" points="909.851,-188 812.851,-188 812.851,-152 909.851,-152 909.851,-188"/>
<text text-anchor="middle" x="861.351" y="-166.3" font-family="Times,serif" font-size="14.00">:npmInstall</text>
</g>
<!-- :grunt_build&#45;&gt;:npmInstall -->
<g id="edge32" class="edge"><title>:grunt_build&#45;&gt;:npmInstall</title>
<path fill="none" stroke="#abdda4" d="M802.21,-227.837C812.317,-218.124 825.118,-205.821 836.225,-195.147"/>
<polygon fill="#abdda4" stroke="#abdda4" points="838.804,-197.523 843.589,-188.07 833.953,-192.476 838.804,-197.523"/>
</g>
<!-- :installGrunt&#45;&gt;:nodeSetup -->
<g id="edge33" class="edge"><title>:installGrunt&#45;&gt;:nodeSetup</title>
<path fill="none" stroke="#abdda4" d="M725.776,-79.8369C737.841,-70.9975 752.832,-60.0135 766.411,-50.0646"/>
<polygon fill="#abdda4" stroke="#abdda4" points="768.647,-52.7657 774.645,-44.0322 764.509,-47.1191 768.647,-52.7657"/>
</g>
<!-- :npmInstall&#45;&gt;:nodeSetup -->
<g id="edge34" class="edge"><title>:npmInstall&#45;&gt;:nodeSetup</title>
<path fill="none" stroke="#abdda4" d="M854.584,-151.966C845.026,-127.907 827.416,-83.579 815.545,-53.6947"/>
<polygon fill="#abdda4" stroke="#abdda4" points="818.703,-52.1651 811.758,-44.1638 812.198,-54.7496 818.703,-52.1651"/>
</g>
<!-- :npmSetup -->
<g id="node22" class="node"><title>:npmSetup</title>
<polygon fill="#abdda4" stroke="#abdda4" points="944.351,-116 850.351,-116 850.351,-80 944.351,-80 944.351,-116"/>
<text text-anchor="middle" x="897.351" y="-94.3" font-family="Times,serif" font-size="14.00">:npmSetup</text>
</g>
<!-- :npmInstall&#45;&gt;:npmSetup -->
<g id="edge35" class="edge"><title>:npmInstall&#45;&gt;:npmSetup</title>
<path fill="none" stroke="#abdda4" d="M870.25,-151.697C874.348,-143.728 879.3,-134.1 883.844,-125.264"/>
<polygon fill="#abdda4" stroke="#abdda4" points="887.093,-126.598 888.554,-116.104 880.868,-123.396 887.093,-126.598"/>
</g>
<!-- :npmSetup&#45;&gt;:nodeSetup -->
<g id="edge36" class="edge"><title>:npmSetup&#45;&gt;:nodeSetup</title>
<path fill="none" stroke="#abdda4" d="M875.549,-79.8369C864.427,-71.0809 850.631,-60.2206 838.088,-50.3465"/>
<polygon fill="#abdda4" stroke="#abdda4" points="840.09,-47.4677 830.067,-44.0322 835.76,-52.9679 840.09,-47.4677"/>
</g>
</g>
</svg>
